<svg width="558" height="475" viewBox="0 0 558 475" fill="none" xmlns="http://www.w3.org/2000/svg">
<path d="M0 0.480645C48.0776 0.392306 96.1551 0.31851 144.233 0.276384C149.921 0.271382 155.609 0.266204 161.298 0.260919C162.996 0.259345 162.996 0.259345 164.729 0.257739C183.014 0.240379 201.299 0.208866 219.585 0.172034C238.376 0.134502 257.167 0.112384 275.958 0.104291C287.534 0.098829 299.11 0.0816373 310.686 0.0489795C318.646 0.0276792 326.606 0.02148 334.566 0.0266398C339.145 0.0291777 343.723 0.0255549 348.301 0.00382343C403.332 -0.244048 456.16 11.5219 500 46.4806C500.897 47.1858 501.794 47.8909 502.719 48.6174C512.858 56.7313 522.811 65.3644 531 75.4806C531.911 76.5796 532.823 77.6786 533.734 78.7775C538.97 85.1491 543.96 91.6347 548.562 98.4806C548.968 99.0788 549.373 99.6771 549.79 100.293C552.365 104.208 554.263 108.129 556 112.481C555.268 112.896 554.536 113.311 553.781 113.738C545.929 118.207 538.114 122.737 530.312 127.293C514.626 136.452 514.626 136.452 507.688 140.481C506.967 140.901 506.246 141.321 505.503 141.753C500.701 144.538 495.844 147.209 490.965 149.857C487.804 151.588 484.664 153.354 481.527 155.129C480.444 155.741 479.36 156.354 478.244 156.985C476.003 158.253 473.763 159.524 471.525 160.797C470.454 161.402 469.382 162.006 468.277 162.629C467.31 163.177 466.344 163.726 465.347 164.291C463 165.481 463 165.481 461 165.481C460.527 164.525 460.054 163.57 459.566 162.586C455.228 154.025 450.513 146.61 444 139.481C442.954 138.313 442.954 138.313 441.887 137.121C421.927 115.957 392.953 107.212 364.569 106.18C357.425 106.007 350.282 105.987 343.137 105.969C340.521 105.952 337.906 105.934 335.29 105.915C329.171 105.871 323.052 105.843 316.932 105.819C309.95 105.792 302.968 105.748 295.986 105.703C281.657 105.611 267.329 105.539 253 105.481C253.061 128.838 253.138 152.196 253.236 175.554C253.281 186.4 253.32 197.246 253.346 208.093C253.369 217.552 253.403 227.01 253.449 236.468C253.473 241.472 253.491 246.476 253.498 251.48C253.504 256.2 253.524 260.919 253.554 265.638C253.563 267.361 253.567 269.084 253.565 270.807C253.547 295.705 260.4 317.452 277 336.481C277.53 337.094 278.06 337.708 278.605 338.34C295.933 356.994 325.002 367.5 350 368.481C388.226 369.716 422.429 359.471 451.539 333.926C454.662 330.837 454.196 327.735 454.316 323.504C454.337 322.819 454.358 322.134 454.379 321.428C454.445 319.237 454.504 317.046 454.562 314.856C454.606 313.371 454.649 311.887 454.693 310.403C454.8 306.762 454.902 303.121 455 299.481C454.427 299.487 453.855 299.493 453.265 299.499C439.327 299.647 425.388 299.788 411.45 299.924C404.71 299.989 397.969 300.057 391.229 300.129C384.725 300.198 378.222 300.263 371.719 300.323C369.236 300.347 366.753 300.373 364.271 300.401C360.797 300.44 357.323 300.472 353.849 300.502C352.82 300.515 351.79 300.528 350.73 300.542C349.781 300.549 348.831 300.556 347.853 300.563C347.032 300.571 346.211 300.58 345.364 300.588C342.825 300.473 340.476 300.039 338 299.481C343.296 289.97 349.247 280.979 355.329 271.961C358.211 267.684 361.075 263.395 363.938 259.106C364.814 257.794 364.814 257.794 365.708 256.455C370.279 249.6 374.778 242.7 379.211 235.755C380.176 234.255 381.161 232.766 382.164 231.292C383.525 229.208 384.746 227.155 385.95 224.985C389.013 219.765 391.641 215.338 397.498 213.209C401.73 212.757 405.762 212.743 410.006 212.891C411.604 212.895 413.201 212.893 414.799 212.885C419.11 212.881 423.416 212.963 427.726 213.061C432.24 213.149 436.753 213.157 441.267 213.173C449.804 213.217 458.337 213.332 466.872 213.472C476.594 213.629 486.315 213.706 496.038 213.776C516.027 213.922 536.013 214.168 556 214.481C556.351 236.369 556.615 258.257 556.777 280.147C556.854 290.313 556.959 300.477 557.132 310.642C557.282 319.508 557.378 328.372 557.411 337.24C557.431 341.93 557.476 346.617 557.586 351.306C558.315 383.648 558.315 383.648 550.763 392.583C548.247 395.042 545.65 397.193 542.766 399.206C540.286 400.996 538.3 403.16 536.25 405.418C531.459 410.138 526.276 414.319 521 418.481C520.036 419.262 519.072 420.043 518.078 420.848C486.524 445.915 448.761 461.985 409.5 470.356C408.607 470.547 407.713 470.738 406.793 470.935C391.201 474.042 375.612 474.86 359.75 474.793C358.404 474.79 358.404 474.79 357.031 474.788C343.495 474.741 330.288 474.274 317 471.481C316.121 471.298 315.241 471.116 314.335 470.928C292.765 466.342 272.731 459.346 253 449.481C253 457.731 253 465.981 253 474.481C214.72 474.481 176.44 474.481 137 474.481C137 352.711 137 230.941 137 105.481C91.79 105.481 46.58 105.481 0 105.481C0 70.8306 0 36.1806 0 0.480645Z" fill="#ED1C24"/>
</svg>
